<?xml version="1.0" encoding="UTF-8"?>
<!DOCTYPE svg PUBLIC "-//W3C//DTD SVG 1.1//EN" "http://www.w3.org/Graphics/SVG/1.1/DTD/svg11.dtd">
<svg xmlns="http://www.w3.org/2000/svg" version="1.1" width="3840px" height="2160px" style="shape-rendering:geometricPrecision; text-rendering:geometricPrecision; image-rendering:optimizeQuality; fill-rule:evenodd; clip-rule:evenodd" xmlns:xlink="http://www.w3.org/1999/xlink">
<g><path style="opacity:1" fill="#0356a3" d="M 2471.5,467.5 C 2572.92,462.774 2671.59,476.941 2767.5,510C 2773.98,512.409 2780.31,515.075 2786.5,518C 2772.43,602.818 2758.26,687.651 2744,772.5C 2644.03,721.866 2538.53,704.366 2427.5,720C 2398.45,724.785 2372.12,735.785 2348.5,753C 2331.42,766.661 2320.59,784.161 2316,805.5C 2313.48,825.617 2318.48,843.617 2331,859.5C 2349.92,880.702 2371.76,898.202 2396.5,912C 2442.04,937.608 2488.38,961.941 2535.5,985C 2582.19,1010.34 2624.35,1041.84 2662,1079.5C 2725.18,1147.05 2751.18,1227.05 2740,1319.5C 2728.37,1421.96 2682.54,1505.13 2602.5,1569C 2546.91,1610.62 2485.24,1640.29 2417.5,1658C 2315.69,1683.05 2212.69,1689.38 2108.5,1677C 2046.71,1670.64 1986.04,1658.64 1926.5,1641C 1907.54,1635.29 1889.21,1628.13 1871.5,1619.5C 1885.74,1531.39 1900.41,1443.39 1915.5,1355.5C 1964.22,1379.68 2014.55,1399.85 2066.5,1416C 2141.5,1435.74 2217.5,1441.07 2294.5,1432C 2333.66,1426.5 2367.83,1410.66 2397,1384.5C 2422.01,1357.14 2428.67,1325.8 2417,1290.5C 2409.23,1274.06 2398.4,1259.89 2384.5,1248C 2365.87,1232.38 2345.87,1218.71 2324.5,1207C 2290.32,1189.08 2255.99,1171.41 2221.5,1154C 2174.83,1129.17 2131.83,1099.17 2092.5,1064C 2006.27,981.952 1978.77,883.118 2010,767.5C 2031.69,692.262 2073.19,630.429 2134.5,582C 2205.74,528.113 2285.74,493.78 2374.5,479C 2406.78,473.433 2439.11,469.6 2471.5,467.5 Z"/></g>
<g><path style="opacity:1" fill="#ffc96c" d="M 560.5,489.5 C 393.325,489.507 225.992,489.507 58.5,489.5C 58.7373,490.791 58.404,491.791 57.5,492.5C 57.5,491.167 57.5,489.833 57.5,488.5C 225.334,488.167 393.001,488.5 560.5,489.5 Z"/></g>
<g><path style="opacity:1" fill="#1085bd" d="M 1444.5,490.5 C 1337.26,489.168 1229.93,489.168 1122.5,490.5C 1176,489.167 1229.83,488.5 1284,488.5C 1337.83,488.833 1391.67,489.167 1445.5,489.5C 1445.38,490.107 1445.04,490.44 1444.5,490.5 Z"/></g>
<g><path style="opacity:1" fill="#1486bd" d="M 1871.5,494.5 C 1871.5,492.833 1871.5,491.167 1871.5,489.5C 1770.1,489.169 1668.76,489.502 1567.5,490.5C 1668.83,488.502 1770.49,487.836 1872.5,488.5C 1872.79,490.735 1872.46,492.735 1871.5,494.5 Z"/></g>
<g><path style="opacity:1" fill="#1e87be" d="M 3308.5,489.5 C 3351.33,488.833 3394.33,488.5 3437.5,488.5C 3480.84,488.5 3523.84,489.167 3566.5,490.5C 3480.57,489.503 3394.57,489.17 3308.5,489.5 Z"/></g>
<g><path style="opacity:1" fill="#ffa703" d="M 560.5,489.5 C 587.202,490.258 612.202,497.091 635.5,510C 642.119,514.133 648.119,518.966 653.5,524.5C 654.419,527.089 656.086,529.089 658.5,530.5C 668.162,540.463 675.329,552.129 680,565.5C 682.202,571.772 684.202,578.105 686,584.5C 721.695,765.142 757.195,945.809 792.5,1126.5C 732.112,970.567 637.112,839.733 507.5,734C 465.128,700.127 420.462,669.627 373.5,642.5C 272.984,584.587 166.317,541.587 53.5,513.5C 54.0685,506.326 55.4018,499.326 57.5,492.5C 58.404,491.791 58.7373,490.791 58.5,489.5C 225.992,489.507 393.325,489.507 560.5,489.5 Z"/></g>
<g><path style="opacity:1" fill="#0256a3" d="M 1444.5,490.5 C 1286.02,881.451 1127.02,1272.12 967.5,1662.5C 859.904,1663.5 752.237,1663.83 644.5,1663.5C 553.721,1323.39 463.387,983.055 373.5,642.5C 420.462,669.627 465.128,700.127 507.5,734C 637.112,839.733 732.112,970.567 792.5,1126.5C 803.674,1180.04 814.341,1233.7 824.5,1287.5C 825.301,1289.79 825.968,1289.46 826.5,1286.5C 924.599,1020.86 1023.27,755.527 1122.5,490.5C 1229.93,489.168 1337.26,489.168 1444.5,490.5 Z"/></g>
<g><path style="opacity:1" fill="#0256a3" d="M 1871.5,494.5 C 1809.13,884.064 1746.13,1273.4 1682.5,1662.5C 1581.38,1664.49 1480.04,1665.16 1378.5,1664.5C 1378.5,1662.5 1378.5,1660.5 1378.5,1658.5C 1440.86,1269.03 1503.86,879.695 1567.5,490.5C 1668.76,489.502 1770.1,489.169 1871.5,489.5C 1871.5,491.167 1871.5,492.833 1871.5,494.5 Z"/></g>
<g><path style="opacity:1" fill="#0256a3" d="M 3308.5,489.5 C 3394.57,489.17 3480.57,489.503 3566.5,490.5C 3648.34,880.036 3729.67,1269.7 3810.5,1659.5C 3810.5,1661.17 3810.5,1662.83 3810.5,1664.5C 3716.83,1664.5 3623.17,1664.5 3529.5,1664.5C 3517.01,1606.38 3505.01,1548.05 3493.5,1489.5C 3363,1488.5 3232.33,1488.17 3101.5,1488.5C 3101.5,1489.5 3101.5,1490.5 3101.5,1491.5C 3081.6,1548.87 3060.93,1605.87 3039.5,1662.5C 2986.21,1663.83 2932.71,1664.5 2879,1664.5C 2825.67,1664.5 2772.5,1664.17 2719.5,1663.5C 2869.38,1304.74 3019.54,946.073 3170,587.5C 3194.87,524.963 3241.04,492.296 3308.5,489.5 Z M 3442.5,1247.5 C 3358.49,1248.16 3274.83,1247.5 3191.5,1245.5C 3245.59,1100.9 3298.93,955.897 3351.5,810.5C 3382.22,956.091 3412.55,1101.76 3442.5,1247.5 Z"/></g>
<g><path style="opacity:1" fill="#fcdcab" d="M 653.5,524.5 C 655.914,525.911 657.581,527.911 658.5,530.5C 656.086,529.089 654.419,527.089 653.5,524.5 Z"/></g>
<g><path style="opacity:1" fill="#b0d2e6" d="M 3191.5,1245.5 C 3274.83,1247.5 3358.49,1248.16 3442.5,1247.5C 3358.67,1248.5 3274.67,1248.83 3190.5,1248.5C 3190.26,1247.21 3190.6,1246.21 3191.5,1245.5 Z"/></g>
<g><path style="opacity:1" fill="#cae0ed" d="M 826.5,1286.5 C 825.968,1289.46 825.301,1289.79 824.5,1287.5C 825.167,1287.17 825.833,1286.83 826.5,1286.5 Z"/></g>
<g><path style="opacity:1" fill="#eef4f7" d="M 3493.5,1489.5 C 3362.62,1488.84 3231.96,1489.5 3101.5,1491.5C 3101.5,1490.5 3101.5,1489.5 3101.5,1488.5C 3232.33,1488.17 3363,1488.5 3493.5,1489.5 Z"/></g>
<g><path style="opacity:1" fill="#b1d3e7" d="M 967.5,1662.5 C 914.004,1663.83 860.171,1664.5 806,1664.5C 751.999,1664.5 698.166,1664.17 644.5,1663.5C 752.237,1663.83 859.904,1663.5 967.5,1662.5 Z"/></g>
<g><path style="opacity:1" fill="#66abd1" d="M 1378.5,1658.5 C 1378.5,1660.5 1378.5,1662.5 1378.5,1664.5C 1480.04,1665.16 1581.38,1664.49 1682.5,1662.5C 1682.5,1663.5 1682.5,1664.5 1682.5,1665.5C 1580.83,1665.5 1479.17,1665.5 1377.5,1665.5C 1377.2,1662.94 1377.53,1660.61 1378.5,1658.5 Z"/></g>
<g><path style="opacity:1" fill="#67acd2" d="M 3039.5,1662.5 C 3039.5,1663.5 3039.5,1664.5 3039.5,1665.5C 2932.5,1665.83 2825.5,1665.5 2718.5,1664.5C 2718.62,1663.89 2718.96,1663.56 2719.5,1663.5C 2772.5,1664.17 2825.67,1664.5 2879,1664.5C 2932.71,1664.5 2986.21,1663.83 3039.5,1662.5 Z"/></g>
<g><path style="opacity:1" fill="#66abd1" d="M 3810.5,1659.5 C 3811.46,1661.26 3811.79,1663.26 3811.5,1665.5C 3717.33,1665.83 3623.33,1665.5 3529.5,1664.5C 3623.17,1664.5 3716.83,1664.5 3810.5,1664.5C 3810.5,1662.83 3810.5,1661.17 3810.5,1659.5 Z"/></g>
</svg>
