<?xml version="1.0" encoding="UTF-8"?>
<svg id="Capa_1" xmlns="http://www.w3.org/2000/svg" version="1.1" viewBox="0 0 1738.27 697.42">
  <!-- Generator: Adobe Illustrator 29.0.0, SVG Export Plug-In . SVG Version: 2.1.0 Build 186)  -->
  <defs>
    <style>
      .st0 {
        fill: #f9b619;
      }

      .st1 {
        fill: #1365ab;
      }
    </style>
  </defs>
  <g>
    <path class="st1" d="M1076.21,478.39c-37.27,42.58-105.35,38.52-157.55,36.45-16.9-.67-37.32-4.98-53.46-5.06-9.07-.04-13.15,3.58-15.69,12.02-9.78,32.55-14.45,72.99-22.91,106.87-1.62,6.51-4.11,21.31-9.35,24.72-9,5.85-27.25,2.46-25.75-11,17.16-90.53,30.69-181.76,47.37-272.37,6.94-37.71,15.2-109.77,35.53-139.68,36.47-53.63,128.84-55.79,186.62-46.04,87.37,14.75,73.62,83.36,62.48,150.76-7.29,44.15-17.57,109.37-47.28,143.32ZM1081.19,237.95c-29.63-31.33-135.01-29.42-165.72,4.27-26.87,29.48-43.01,122.94-46.21,163.06-2.36,29.61-7.84,56.25,25.5,68.57,25.04,9.25,99.95,8.28,126.07.27,49.76-15.27,54.6-86.33,62.09-130.96,4.75-28.32,19.07-83.22-1.73-105.21Z"/>
    <path class="st1" d="M1705.29,205.98c30.58,31.47,22.3,106.56,11.96,146.93-2.85,11.14-6.62,13.29-18.14,14.31-68.72,6.04-145.81-5-215.41.35-12.53,1.86-14.68,7.19-17.01,18.68-5.81,28.62-7.44,71.44,23.27,86.16,17.9,8.58,49.01,7.84,69.5,8.37,38.25,1,76.64-1.2,114.89.29,10.25-.29,5.77,26.65,2.43,30.1-5.99,6.17-49.32,3.08-60.53,3.54-49.12,2.03-152.03,14.38-181.09-36.16-21.46-37.33-8.1-112.35.78-153.88,16.49-77.14,33.58-128.36,120.56-140.63,40.59-5.73,118.95-8.77,148.8,21.94ZM1556.76,220.01c-48.74,3.87-59.17,29.15-72.7,71.68-2.85,8.94-9.75,27.36-8.1,35.75,1.01,5.11,7.72,5.36,12.12,5.72,57.72,4.75,121.8-3.73,180.2,0,15.49-1.44,14.62-7.09,16.74-20.57,2.41-15.3,6.82-43.59,6.71-58.16-.1-13.28-6.99-24.56-19.49-29.18-22.76-8.4-89.62-7.28-115.48-5.23Z"/>
    <path class="st1" d="M1384.19,355.12c36.45,38.77,16.94,114.58-27.76,139.88-36.98,20.93-121.63,15.87-165.22,16.47-18.82.26-39.43,4.07-58.41,1.77-7.03-.85-5.93-4.19-5.67-10.66.31-7.79,2.02-17.9,10.96-19.9,24.2.25,48.6-3,72.59-3.65,32.96-.9,83.38,5.1,113.26-5.17,44.91-15.43,60.64-91.05,6.37-104.6-64.36-16.07-189.35,22.46-173.72-90.33,13.03-94.1,80.36-92.6,157.92-91.78,33.35.35,66.62,1.36,99.94,2.26,5.28,13.52-1.05,28.85-15.9,31.35-50.11,5.45-156.11-19.13-191.89,22.25-16.53,19.12-21.48,55.41.85,72.23,40.02,30.14,127.93-11.99,176.69,39.88Z"/>
  </g>
  <g>
    <path class="st0" d="M629.15,336.33c-7.88-10.68-15.7-21.82-24.86-31.22-1.88-7.38-7.95-10.18-12.4-15.45-9.66-11.45-11.11-21.67-28.39-23.15-20.48-1.75-73.04-2.61-92.43.16-15.97,2.28-17.98,14.24-30.26,20.03-9.66,4.55-17.3,4.87-27.41,1.76-15.82-4.87-26.37-25.98-22.67-41.83.25-1.08,2.41-1.01,3.01-2.46s.32-3.51,1.11-4.99c8.48-15.91,26.61-23.42,44.02-16.76,9.57,3.66,12.62,12.32,20.69,16.63,16.58,8.84,29.53,2.84,45.48,3.06,3.86.05,7.43,1.85,11.29,1.82,18.51-.12,51.16-4.65,66.88,1.26,15.16,5.69,25.44,26.35,35.24,38.52,8.81,10.95,24.23,33.06,33.41,42.08,2.66,2.62,11.17,8.9,14.54,9.78l135.55.72c10.56.79,13.15,6.76,10.19,16.77-3.12,10.55-26.87,4.47-34.5,4.3-14.8-.33-24.99-.73-38.8,5.14-54.17,23.02-35.65,105.08-107.25,100.35-13.28-.88-18.03-6-32.09,1.69-2.59,1.42-8.53,10.07-11.49,12.33-10.97,8.34-22.78,9.68-36,3.92-33.25-14.48-22.25-72.2,19.39-66.44,22.83,3.16,29.1,26.26,60.23,24.24,8.45-.55,21.81-5.96,27.87-11.85,3.03-2.95,30.88-43.74,32.28-47.18,13.25-32.58-36.21-19.47-52.03-18.82-70.98,2.94-144.78-7.51-215.8-1.67-3.63.3-10.51,1.35-13.9,2.32-15.68,4.48-13.5,20.4-33.59,23.19-13.75,1.91-29.58-4.55-37.22-16.29-.77-1.18-.25-3.55-1.03-5.47-.22-.55-2.38-.57-2.65-1.67-6.31-25.61,13.25-48.89,39.52-45.72,15.81,1.91,27.46,20.9,37.49,20.9h216.57Z"/>
    <path class="st0" d="M591.34,81.12c-14.54,12.1-39.55,6.96-50.23-7.69-8.31-11.4-9.41-22.36-3.46-35.43,14.19-31.15,62.26-23.96,67.08,10.49,1.41,10.11-5.67,26.22-13.39,32.64Z"/>
    <path class="st0" d="M591.16,620.96c4.75,4.14,9.62,13.26,10.48,19.47,4.59,33.11-30.61,51.45-57.24,33.26-1.99-1.36-10.92-13.98-11.08-15.25-.59-4.86-.53-17.89.22-22.68,1.51-9.69,13.72-19.83,22.64-22.77,12.56-4.15,25.13-.59,34.97,7.98Z"/>
    <path class="st0" d="M660.65,523.84c9.78,11.33,11.15,25.57,4.31,38.92-8.3,16.17-23.85,19.69-41.11,16.53-5.13-.94-16.49-9.48-18.99-13.82-22.18-38.46,28.07-73.74,55.79-41.63Z"/>
    <path class="st0" d="M652.92,119.53c.49.24.8,1.93,1.79,2.63,4.74,3.34,7.2,3.82,10.24,10.46,6.78,14.81,5.57,33.48-8.33,43.81-23.42,17.39-55.58,3.85-56.69-25.92-1.06-28.52,28.55-42.86,52.99-30.98Z"/>
    <path class="st0" d="M526.26,124.55c4.48,4.14,9.77,14.96,10.46,21.11,2.85,25.47-20.69,43.02-45.16,37.06-19.5-4.75-25.02-22.23-23.12-40.36,2.76-26.43,39.17-35.04,57.82-17.81Z"/>
    <path class="st0" d="M321.87,233.23c7.99,6.19,9.14,24.7,7.1,33.8-.25,1.13-2.4,1.29-2.99,2.5-1.2,2.45-1.96,6.05-3.92,7.91-7.86,7.44-25.38,8.43-35.21,4.56s-15.59-15.89-16.31-25.88c-2.01-27.8,30.94-38.68,51.34-22.88Z"/>
    <path class="st0" d="M462.8,37.12c.34.52,1.87.47,2.39,1.95,6.25,17.73-1.22,39.98-21.97,42.37-13.06,1.51-25.03-1.39-31.54-13.52-19.75-36.78,31.18-61.37,51.12-30.81Z"/>
    <path class="st0" d="M253.87,325.58c12.52,7.15,14.23,36.19,3.3,45.95-10.34,9.22-34.3,9.52-44.45,0-7.11-6.67-8.12-20.26-6.88-29.41,2.85-21,32.12-25.61,48.03-16.53Z"/>
    <path class="st0" d="M388.17,131.19c13.72,16.23,5.14,43.39-16.87,47.04-22.64,3.76-39.16-11.15-35.67-34.05,3.87-25.45,36.6-31.86,52.54-12.99Z"/>
    <path class="st0" d="M456.25,471.66c-8.03,6.71-14.91,7.19-25.86,5.84-19.99-2.46-28.84-28.66-18.68-44.7,3.53-5.57,14.55-12.02,21.07-13.03,31.08-4.79,45.78,33.24,23.47,51.89Z"/>
    <path class="st0" d="M458.22,624.13c12.17,8.59,10.81,37.86-2.35,45.84-28.23,17.1-57.81-7.37-45.24-37.09,8.01-18.92,32.38-19.49,47.59-8.75Z"/>
    <path class="st0" d="M318.7,424.59c13.33,8.26,14.1,34.04,3.87,45.15-10.99,11.94-39.17,10.32-47.11-4.32-16.71-30.8,15.12-58.26,43.24-40.83Z"/>
    <path class="st0" d="M524.44,527.03c7.98,9.45,8.51,19.95,4.72,31.37-7.11,21.44-44.34,22.79-53.64,2.12-7.27-16.18-1.52-39.86,18.35-42.31,12.78-1.58,22.2-1.1,30.56,8.82Z"/>
    <path class="st0" d="M352.21,559.73c-.3-.45-3.49-9.4-3.62-10.17-5.24-29.74,47.21-33.98,42.15,1.8-1.94,13.72-19.09,18.64-30.47,14.11-.69-.27-7.79-5.33-8.06-5.74Z"/>
    <path class="st0" d="M316.78,634.12c11.85,15.27.43,34.71-18.93,32.78-4.28-.43-15.54-5.97-17-9.76-2.21-5.71-1.07-20.1,3.34-24.96,9.19-10.13,24.46-8.53,32.59,1.95Z"/>
    <path class="st0" d="M157.47,468.91c-.43-.19-.56-2.14-1.6-2.78-3.45-2.15-6.83-2.11-8.09-7.71-4.11-18.35,4.82-32.58,24.61-29.5,20.68,3.21,19.45,35.86,2.95,40.05-3.13.8-15.28,1.08-17.86-.05Z"/>
    <path class="st0" d="M182.41,239.67c7.04,5.35,6.03,17.78,3.33,25.59-4.39,12.68-24.07,11.22-34.09,6.25-6.68-7.83-6.82-28.06,2.72-33.52,9.58-5.49,19.31-4.96,28.04,1.68Z"/>
    <path class="st0" d="M150.02,330.47c8.03,4.78,8.53,15.84,6.97,24.44-3.03,16.62-32.75,17.98-38.32,2.83-4.36-11.87-2.78-27.29,11.74-29.41,5.8-.85,14.6-.85,19.62,2.14Z"/>
    <path class="st0" d="M217.99,161.81c-.58-.82-2.28-.12-2.63-3.04-.44-3.66-.5-14.47.15-17.89,2.88-15.17,39.8-18.45,40.17,8.07.32,22.64-26.57,28.66-37.69,12.86Z"/>
    <path class="st0" d="M315.55,36.72c3.15,2.94,5.52,12.21,5.49,16.53-.17,27.57-45.33,28.7-40.74-6.56,1.98-15.24,26.4-18.23,35.25-9.97Z"/>
    <path class="st0" d="M247.4,558.06c-7.32,6.69-25.34,6.19-28.3-5.55-1.68-6.66-.33-18.87,7.2-21.22,2.94-.92,15.66-.82,18.38.51,7.41,3.61,9.04,20.49,2.72,26.26Z"/>
    <path class="st0" d="M146.7,139.11c6.09,4.23,5.79,19.42-.55,21.98-34.8,14.02-26.88-41.02.55-21.98Z"/>
    <path class="st0" d="M75.54,242.72c.46.18,6.73,6.69,6.83,7.18,4.43,20.94-24.3,27.56-28.73,7.26-2.69-12.3,11.57-18.43,21.91-14.44Z"/>
    <path class="st0" d="M78.63,439.11c8.71,8.69,2.35,23.38-10.01,23.89-2.4.1-10.95-2.25-11.82-3.72-.78-1.31.14-3.8-.41-4.85-.93-1.79-3.25-1-3.35-3.68-.51-13.71,16.24-20.97,25.59-11.64Z"/>
    <path class="st0" d="M128.45,557.92c-7.68-4.07-7.25-22.41,3.82-24.94,28.75-6.55,21.67,38.44-3.82,24.94Z"/>
    <path class="st0" d="M43.02,340.07c.86.95,3.9,8.58,3.9,10.04,0,17.07-27.36,16.57-29.38,1.49-1.89-14.05,17.71-20.14,25.49-11.53Z"/>
  </g>
</svg>