<svg width="241" height="64" viewBox="0 0 241 64" fill="none" xmlns="http://www.w3.org/2000/svg">
<path fill-rule="evenodd" clip-rule="evenodd" d="M28.6963 28.1583C28.8357 28.6696 29.3795 28.9333 29.9318 28.7599C34.4605 27.4439 39.0004 26.5433 43.6846 25.8882C44.2214 25.8203 44.5152 25.2961 44.3178 24.7702C43.902 23.6621 43.6917 23.1095 43.2666 22.0078C43.0861 21.54 42.5981 21.2332 42.0985 21.2844C37.5206 21.8174 33.0979 22.6046 28.6654 23.8171C28.0883 23.9883 27.7338 24.5987 27.8794 25.1401C28.2033 26.3457 28.3667 26.9491 28.6963 28.1583Z" fill="#2C2A29"/>
<path fill-rule="evenodd" clip-rule="evenodd" d="M47.0508 28.764C46.8752 28.2688 46.398 27.9378 45.9263 27.9962C38.7597 28.8589 31.7813 30.532 25.1638 33.2972C24.6811 33.5128 24.3916 34.0862 24.4928 34.5914C24.7522 35.8839 24.8831 36.5306 25.1479 37.8255C25.261 38.3792 25.8085 38.6341 26.3486 38.3854C33.0704 35.4781 40.1736 33.6271 47.4606 32.5233C47.9237 32.4517 48.1598 31.9504 47.9826 31.4341C47.6155 30.3634 47.4291 29.8295 47.0508 28.764Z" fill="#2C2A29"/>
<path fill-rule="evenodd" clip-rule="evenodd" d="M47.0307 35.9812C46.8531 35.4525 46.334 35.1077 45.8407 35.2035C41.366 36.1203 36.992 37.2253 32.6592 38.6313C32.1097 38.8218 31.8002 39.3693 31.9445 39.8729C32.289 41.0728 32.4624 41.6737 32.811 42.8773C32.9748 43.4426 33.6468 43.7319 34.2658 43.5092C38.5971 42.0443 42.9721 40.7653 47.4426 39.7398C47.8713 39.6414 48.0823 39.1665 47.923 38.6767C47.571 37.5962 47.3927 37.0569 47.0307 35.9812Z" fill="#2C2A29"/>
<path fill-rule="evenodd" clip-rule="evenodd" d="M64.1151 34.7976C64.1151 33.3439 63.1359 32.7405 61.2063 32.7405H58.9023V36.8546H61.1775C63.0495 36.8546 64.1151 36.1416 64.1151 34.7976ZM60.7455 25.5271C60.1407 25.5271 59.5073 25.582 58.9023 25.6642V29.3121H60.8607C62.5885 29.3121 63.3951 28.6264 63.3951 27.4471C63.3951 26.3225 62.5599 25.5271 60.7455 25.5271ZM68.8379 34.9896C68.8379 38.1986 65.4397 40.338 61.5805 40.338H54.4961V22.6199C56.8577 22.2907 58.6433 22.0713 60.7455 22.0713C64.6333 22.0713 67.7437 23.7991 67.7437 26.8162C67.7437 28.5441 66.7933 29.6961 65.0941 30.3269C67.7149 31.0401 68.8379 32.5486 68.8379 34.9896Z" fill="#2C2A29"/>
<path fill-rule="evenodd" clip-rule="evenodd" d="M78.9863 36.8274V34.4687H78.1511C76.1929 34.4687 74.4072 34.8801 74.4072 36.1691C74.4072 37.1565 75.0984 37.5131 76.5097 37.5131C77.6329 37.5131 78.5543 37.1837 78.9863 36.8274ZM83.2197 31.6984V38.9118C81.6647 40.0363 79.1591 40.6398 75.7609 40.6398C72.737 40.6398 70.2314 39.4603 70.2314 36.8546C70.2314 32.9325 74.2345 31.9727 78.9863 31.8355C78.8999 30.135 78.1799 29.6961 76.5959 29.6961C75.7609 29.6961 73.5433 30.0527 73.2554 30.0527C72.5641 30.0527 72.017 29.6413 71.5562 28.4346L71.2105 27.4472C72.9961 26.8163 74.7529 26.3774 76.6537 26.3774C80.8007 26.3774 83.2197 27.8586 83.2197 31.6984Z" fill="#2C2A29"/>
<path fill-rule="evenodd" clip-rule="evenodd" d="M99.0778 30.5737V40.3379H94.758V32.0272C94.758 30.5737 93.7502 29.8331 91.9934 29.8331C91.3312 29.8331 90.6976 29.9154 90.1502 30.0525V40.3379H85.8018L85.8304 28.1327C87.6448 26.9807 90.5822 26.3499 92.9726 26.3499C96.2846 26.3499 99.0778 27.9131 99.0778 30.5737Z" fill="#2C2A29"/>
<path fill-rule="evenodd" clip-rule="evenodd" d="M100.951 33.6458C100.951 28.8458 104.465 26.3225 109.015 26.3225C110.282 26.3225 111.434 26.4871 112.816 26.7888C112.644 28.1602 112.039 29.3669 111.376 30.0526C110.887 29.9155 110.08 29.8058 109.62 29.8058C106.711 29.8058 105.53 31.232 105.53 33.3989C105.53 35.593 106.625 36.937 109.36 36.937C110.109 36.937 110.973 36.7999 112.039 36.4431L112.816 39.7345C111.232 40.338 109.591 40.6122 108.295 40.6122C103.86 40.6122 100.951 38.0888 100.951 33.6458Z" fill="#2C2A29"/>
<path fill-rule="evenodd" clip-rule="evenodd" d="M124.336 33.4538C124.336 31.2046 123.184 29.888 121.168 29.888C119.209 29.888 118 31.2046 118 33.4538C118 35.8124 119.181 37.0467 121.168 37.0467C123.184 37.0467 124.336 35.8124 124.336 33.4538ZM113.651 33.4538C113.651 29.0652 116.762 26.3225 121.168 26.3225C125.747 26.3225 128.684 29.1749 128.684 33.4538C128.684 37.8694 125.718 40.6122 121.168 40.6122C116.589 40.6122 113.651 37.7873 113.651 33.4538Z" fill="#2C2A29"/>
<path fill-rule="evenodd" clip-rule="evenodd" d="M131.133 22.7294C132.141 22.0163 134.329 21.4128 135.481 21.4128V40.3378H131.133V22.7294Z" fill="#2C2A29"/>
<path fill-rule="evenodd" clip-rule="evenodd" d="M148.614 33.4538C148.614 31.2046 147.462 29.888 145.446 29.888C143.488 29.888 142.278 31.2046 142.278 33.4538C142.278 35.8124 143.459 37.0467 145.446 37.0467C147.462 37.0467 148.614 35.8124 148.614 33.4538ZM137.93 33.4538C137.93 29.0652 141.04 26.3225 145.446 26.3225C150.025 26.3225 152.963 29.1749 152.963 33.4538C152.963 37.8694 149.997 40.6122 145.446 40.6122C140.867 40.6122 137.93 37.7873 137.93 33.4538Z" fill="#2C2A29"/>
<path fill-rule="evenodd" clip-rule="evenodd" d="M177.183 30.5737V40.3379H172.892V32.0272C172.892 30.5737 171.913 29.8331 170.185 29.8331C169.378 29.8331 168.601 29.9977 167.967 30.2445C168.198 30.848 168.313 31.5062 168.313 32.2194V40.3379H164.022V32.0272C164.022 30.5737 163.043 29.8331 161.315 29.8331C160.652 29.8331 160.019 29.9154 159.472 30.0525V40.3379H155.123L155.152 28.1327C156.88 26.9807 159.587 26.3499 161.862 26.3499C163.676 26.3499 165.231 26.9259 166.354 27.8584C167.823 26.9531 169.868 26.3499 171.596 26.3499C174.735 26.3499 177.183 27.9405 177.183 30.5737Z" fill="#2C2A29"/>
<path fill-rule="evenodd" clip-rule="evenodd" d="M190.344 33.2616C190.344 30.7382 188.962 29.833 186.744 29.833C185.852 29.833 185.132 29.9976 184.498 30.2719V37.1563C185.276 37.2658 186.025 37.3207 186.716 37.3207C189.25 37.3207 190.344 35.4557 190.344 33.2616ZM194.635 32.7403C194.635 37.7321 191.525 40.6121 186.456 40.6121C183.98 40.6121 181.589 40.1733 180.149 39.5426V22.7294C181.157 22.0163 183.375 21.4128 184.498 21.4128V27.913C185.737 26.8984 187.234 26.3498 188.587 26.3498C192.879 26.3498 194.635 29.1748 194.635 32.7403Z" fill="#2C2A29"/>
<path fill-rule="evenodd" clip-rule="evenodd" d="M197.084 26.7339C197.689 26.487 198.438 26.3499 199.273 26.3499C200.108 26.3499 200.828 26.487 201.433 26.7339V40.3379H197.084V26.7339ZM197.026 22.4001C197.026 21.2483 198.034 20.2883 199.244 20.2883C200.482 20.2883 201.49 21.2209 201.49 22.4001C201.49 23.5247 200.482 24.5121 199.244 24.5121C198.034 24.5121 197.026 23.5796 197.026 22.4001Z" fill="#2C2A29"/>
<path fill-rule="evenodd" clip-rule="evenodd" d="M212.348 36.8274V34.4687H211.513C209.554 34.4687 207.769 34.8801 207.769 36.1691C207.769 37.1565 208.46 37.5131 209.871 37.5131C210.994 37.5131 211.916 37.1837 212.348 36.8274ZM216.582 31.6984V38.9118C215.026 40.0363 212.521 40.6398 209.122 40.6398C206.098 40.6398 203.593 39.4603 203.593 36.8546C203.593 32.9325 207.596 31.9727 212.348 31.8355C212.262 30.135 211.542 29.6961 209.958 29.6961C209.122 29.6961 206.905 30.0527 206.617 30.0527C205.926 30.0527 205.378 29.6413 204.918 28.4346L204.572 27.4472C206.358 26.8163 208.114 26.3774 210.015 26.3774C214.162 26.3774 216.582 27.8586 216.582 31.6984Z" fill="#2C2A29"/>
</svg>
