<svg xmlns="http://www.w3.org/2000/svg" viewBox="0 0 100 32" width="100" height="32">
  <path fill="#1A1F71" d="M38.1 0l-4.2 19.2h-5.1L31.9 0h6.2zm18.1 0l-4.1 19.2h-4.9l4.1-19.2h4.9zm15.8 0c-1.3-.5-3.4-1-5.9-1-6.2 0-10.5 3.3-10.5 8 0 3.5 3.1 5.4 5.5 6.6 2.5 1.2 3.3 2 3.3 3.1 0 1.6-2 2.4-3.8 2.4-2.5 0-3.9-.4-6-1.4l-.8-.4-.9 4.2c1.1.5 3.2 1 5.4 1 6.6 0 10.9-3.3 10.9-8.3 0-2.8-2-4.9-6.4-6.3-2.7-1.3-4.3-2.2-4.3-3.9 0-1.4 1.5-2.8 4.7-2.8 2.6 0 4.5.6 6 1.4l.7.3.8-4.4zM19.1 0L13.2 13.5 12.5 10c-.8-4.1-4.2-8.5-8.2-10H0l.1.4c5 1.3 8.5 4.8 9.8 9.8l4.4 16.5h5.4L27.8 0h-8.7z" />
  <path fill="#F7B600" d="M9.9 10.2L4.3 0H0c4 1.5 7.4 5.9 8.2 10l1.7.2z" />
</svg>